<svg xmlns="http://www.w3.org/2000/svg" viewBox="42.493 123.828 99.282 99.282">
  <style>
    path { fill: #1a1e23; }
    @media (prefers-color-scheme: dark) {
      path { fill: #e4e9ec; }
    }
  </style>
  <path d="M 95.83233299999999,222.89029 C 88.63120599999999,221.59959999999998 84.847297,220.05204 80.33494199999998,216.5521 C 76.54429299999998,213.61194 74.25193299999998,210.72442999999998 71.75525099999999,205.74491 C 70.71488299999999,203.66995 70.01261699999999,202.61395000000002 69.29179099999999,202.04059 C 68.30040299999999,201.25203000000002 68.216326,201.23545000000001 64.26470799999998,201.04958000000002 C 58.773752999999985,200.7913 55.86719699999998,199.96635000000003 52.385829999999984,197.67807000000002 C 47.904262999999986,194.73237000000003 44.72506399999998,189.99516000000003 43.57951699999998,184.55611000000002 C 42.16485599999998,177.83931 44.27980199999998,167.31085000000002 48.53230799999998,159.90053 C 52.18367899999998,153.53774 58.58430499999998,147.26768 64.49302999999998,144.26539 C 66.22318299999998,143.38629 68.22380899999997,141.40968 68.96128199999998,139.85079 C 69.33094699999998,139.06938 69.93109199999998,137.49747 70.29493899999999,136.35765999999998 C 71.14045099999998,133.70895 72.15626099999999,131.96151999999998 74.02193399999999,129.94636999999997 C 78.13112299999999,125.50795999999997 84.15547499999998,123.63318999999997 93.44229399999999,123.90279999999997 C 99.89244299999999,124.09005999999997 103.74551,125.30253999999996 107.26924,128.25385999999997 C 109.99692999999999,130.53844999999998 111.02556,132.14367999999996 113.29169999999999,137.65228999999997 C 114.30022999999998,140.10383999999996 115.89093,141.70724999999996 118.86492,143.27003999999997 C 132.39425,150.37949999999998 140.42442,162.94530999999998 140.99891,177.90584999999996 C 141.171,182.38752999999997 140.89930999999999,184.46842999999996 139.71613,187.73110999999994 C 138.27194,191.71347999999995 135.79372999999998,194.82818999999995 131.81628,197.65990999999994 C 130.43349,198.64437999999993 128.98108000000002,199.78969999999993 128.58870000000002,200.20506999999995 C 127.64025000000002,201.20907999999994 126.89692000000002,202.95952999999994 126.52648000000002,205.06131999999994 C 125.40027000000002,211.45115999999993 121.37324000000002,216.73224999999994 115.27921000000002,219.81111999999993 C 110.71587000000002,222.11663999999993 107.55756000000002,222.81837999999993 101.25629000000002,222.92685999999992 C 98.63691600000003,222.9719599999999 96.19613500000003,222.95545999999993 95.83233300000002,222.89025999999993 L 95.83233299999999,222.89029 M 106.54795999999999,206.08409 C 109.20289999999999,205.42260000000002 110.13063999999999,204.89603 110.70964999999998,203.722 C 111.13493999999999,202.85966000000002 111.13916999999998,202.58053 110.76974999999999,199.76062000000002 C 109.77615999999999,192.17622000000003 109.51561999999998,191.73561 106.32739999999998,192.24792000000002 C 105.57557999999999,192.36872000000002 104.04708999999998,192.47343000000004 102.93075999999998,192.48059000000003 C 101.13652999999998,192.49209000000005 100.82186999999998,192.41919000000004 100.21837999999998,191.85180000000003 C 99.84290299999998,191.49881000000002 99.41747699999998,190.78443000000001 99.27298899999998,190.26430000000002 C 99.11757599999999,189.70484000000002 99.00968099999999,184.57722 99.00880799999999,177.70928 L 99.007308,166.09994 L 100.131785,166.27782 C 106.07370499999999,167.21777 111.23009499999999,169.81688 113.82451499999999,173.17972999999998 C 115.30184499999999,175.09462999999997 115.95341499999999,176.92923 116.211485,179.90067999999997 C 116.446945,182.61188999999996 116.774245,183.30613999999997 118.309635,184.35122999999996 C 120.004015,185.50453999999996 122.247645,185.35830999999996 123.875615,183.98846999999995 C 125.248295,182.83342999999994 125.55947499999999,181.93370999999996 125.509485,179.26444999999995 C 125.392505,173.01873999999995 123.630265,167.43121999999994 120.419235,163.12485999999996 C 119.333335,161.66855999999996 116.664545,159.03047999999995 115.014595,157.78243999999995 C 111.569275,155.17634999999996 105.548455,152.88364999999996 100.54228499999999,152.27145999999996 L 99.034551,152.08708999999996 L 98.954781,146.00963999999996 L 98.875011,139.93219999999997 L 97.886709,139.02696999999998 C 96.900841,138.12396999999999 96.892044,138.12175999999997 94.31483399999999,138.13034 C 92.893869,138.13533999999999 90.47539699999999,138.29661 88.940452,138.4893 C 84.058764,139.10213 84.10028299999999,139.03430999999998 83.926053,146.68039 L 83.793762,152.48601 L 81.14792800000001,153.07926999999998 C 68.52111500000001,155.91052 60.58393900000001,164.37842999999998 59.083943000000005,176.61861 C 58.53125800000001,181.12860999999998 58.80046600000001,182.65882 60.380489000000004,183.98832 C 62.12699800000001,185.45791 64.731348,185.44389999999999 66.500338,183.95541999999998 C 67.599126,183.03085 67.79135,182.55329999999998 68.177455,179.78888999999998 C 68.37211599999999,178.39515999999998 68.8048,176.70944999999998 69.17246899999999,175.91236999999998 C 70.620415,172.77331999999998 73.51497499999999,170.15098999999998 77.33791699999999,168.51486999999997 C 79.25012699999999,167.69648999999998 82.56575299999999,166.71035999999998 83.43558999999999,166.70129999999997 C 83.83211399999999,166.69729999999998 83.882573,167.81763999999998 83.99837799999999,179.19832999999997 C 84.11381099999998,190.54252999999997 84.17582599999999,191.92719999999997 84.66824599999998,194.15517999999997 C 86.00039199999998,200.18254999999996 89.51928799999999,204.21960999999996 94.97495199999999,205.97955999999996 C 98.11355799999998,206.99205999999995 102.73623999999998,207.03381999999996 106.54793,206.08411999999996 L 106.54795999999999,206.08409 M 98.081291,203.30614 C 96.272357,203.02714 93.88333399999999,202.03671 92.418909,200.95866 C 89.596582,198.88098000000002 88.273342,196.23376000000002 87.526296,191.1707 C 87.461886,190.73413000000002 87.39939,184.17721 87.387423,176.59976 L 87.365663,162.82258000000002 L 85.579726,163.03677000000002 C 81.431928,163.53423 77.348804,164.67917000000003 74.34396799999999,166.18737000000002 C 70.68894599999999,168.02191000000002 67.12874099999999,171.76437 65.990894,174.96806 C 65.559322,176.18317000000002 65.507964,176.22759000000002 64.7454,176.04509000000002 C 64.307952,175.94039 63.682149,175.84802000000002 63.354727000000004,175.83980000000003 C 62.87856300000001,175.82790000000003 62.759415000000004,175.67228000000003 62.759415000000004,175.06252000000003 C 62.759415000000004,173.92498000000003 64.25860200000001,169.73474000000004 65.434066,167.58683000000002 C 67.893694,163.09239000000002 72.870824,159.14992 78.502122,157.23541000000003 C 80.483603,156.56176000000002 85.170984,155.58424000000002 86.419811,155.58424000000002 L 87.356577,155.58424000000002 L 87.427267,148.90351 L 87.497957,142.22278 L 89.614624,141.90926 C 90.77879,141.73682 92.594493,141.588 93.64951900000001,141.57853 L 95.56774800000001,141.56133 L 95.56774800000001,148.4405 L 95.56774800000001,155.31966 L 96.692227,155.32466 C 98.214203,155.33166 102.76102900000001,156.00272999999999 104.623239,156.49597 C 106.614799,157.02347 110.703319,158.9463 112.660789,160.27602 C 114.678749,161.64683 117.746769,164.88546 118.90037899999999,166.86257999999998 C 120.37563899999999,169.39095999999998 121.11859899999999,171.48636999999997 121.91398899999999,175.36199999999997 C 122.02871899999998,175.92103999999998 121.94898899999998,175.95730999999998 120.60528899999998,175.95730999999998 L 119.17441899999999,175.95730999999998 L 118.216839,173.94093999999998 C 117.69017899999999,172.83192999999997 116.782519,171.35512999999997 116.19981899999999,170.65915999999999 C 114.60624899999999,168.75581 111.60162899999999,166.59011999999998 108.87710899999999,165.38105 C 105.297169,163.79235 103.225759,163.31945 96.67357399999999,162.59497 L 95.530442,162.46857 L 95.639281,176.42284 C 95.719651,186.72668000000002 95.836705,190.67102 96.086747,191.50062 C 96.520775,192.94065 98.185387,194.83271 99.47077300000001,195.34702 C 101.01386900000001,195.96445 103.19920900000001,196.14443 105.058699,195.80723999999998 C 105.98076900000001,195.64003999999997 106.774859,195.54289999999997 106.82334900000001,195.59139 C 106.94727900000001,195.71532 107.781619,202.19734 107.68524900000001,202.28751 C 106.93844900000002,202.98626 100.46119900000001,203.67337 98.08129000000001,203.3063 L 98.081291,203.30614"/>
</svg>
