<?xml version="1.0" encoding="UTF-8" standalone="no"?>
<!-- Created with Inkscape (http://www.inkscape.org/) -->

<svg
   viewBox="-0.127 0.000 210.000 210.000"
   version="1.1"
   id="svg1"
   xml:space="preserve"
   inkscape:version="1.4 (e7c3feb1, 2024-10-09)"
   sodipodi:docname="logo.svg"
   xmlns:inkscape="http://www.inkscape.org/namespaces/inkscape"
   xmlns:sodipodi="http://sodipodi.sourceforge.net/DTD/sodipodi-0.dtd"
   xmlns="http://www.w3.org/2000/svg"
   xmlns:svg="http://www.w3.org/2000/svg"><sodipodi:namedview
     id="namedview1"
     pagecolor="#ffffff"
     bordercolor="#000000"
     borderopacity="0.25"
     inkscape:showpageshadow="2"
     inkscape:pageopacity="0.0"
     inkscape:pagecheckerboard="0"
     inkscape:deskcolor="#d1d1d1"
     inkscape:document-units="mm"
     inkscape:zoom="0.71520881"
     inkscape:cx="276.84223"
     inkscape:cy="508.24318"
     inkscape:window-width="1512"
     inkscape:window-height="856"
     inkscape:window-x="0"
     inkscape:window-y="33"
     inkscape:window-maximized="0"
     inkscape:current-layer="layer1" /><defs
     id="defs1" /><g
     inkscape:label="Layer 1"
     inkscape:groupmode="layer"
     id="layer1"><g
       id="g7"
       transform="matrix(2.1411369,0,0,2.1201795,-10.071174,-343.17843)"><path
         style="fill:#000000"
         d="m 57.393647,260.87572 c -7.201127,-1.29069 -10.985036,-2.83825 -15.49739,-6.33819 -3.790651,-2.94016 -6.083011,-5.82767 -8.579691,-10.80719 -1.04037,-2.07496 -1.74264,-3.13096 -2.46346,-3.70432 -0.99139,-0.78856 -1.07547,-0.80514 -5.02709,-0.99101 -5.49095,-0.25828 -8.39751,-1.08323 -11.87888,-3.37151 -4.4815597,-2.9457 -7.6607597,-7.68291 -8.8063097,-13.12196 -1.414658,-6.7168 0.70029,-17.24526 4.9527897,-24.65558 3.65137,-6.36279 10.052,-12.63285 15.96072,-15.63514 1.73016,-0.8791 3.73078,-2.85571 4.46826,-4.4146 0.36966,-0.78141 0.96981,-2.35332 1.33365,-3.49313 0.84552,-2.64871 1.86133,-4.39614 3.727,-6.41129 4.10919,-4.43841 10.133543,-6.31318 19.420362,-6.04357 6.450149,0.18726 10.303216,1.39974 13.826946,4.35106 2.72769,2.28459 3.75632,3.88982 6.02246,9.39843 1.00853,2.45155 2.59923,4.05496 5.57322,5.61775 13.52933,7.10946 21.559496,19.67527 22.133986,34.63581 0.17209,4.48168 -0.0996,6.56258 -1.28278,9.82526 -1.444186,3.98237 -3.922396,7.09708 -7.899846,9.9288 -1.38279,0.98447 -2.8352,2.12979 -3.22758,2.54516 -0.94845,1.00401 -1.69178,2.75446 -2.06222,4.85625 -1.12621,6.38984 -5.15324,11.67093 -11.24727,14.7498 -4.56334,2.30552 -7.72165,3.00726 -14.02292,3.11574 -2.619374,0.0451 -5.060155,0.0286 -5.423957,-0.0366 v 3e-5"
         id="path1" /><g
         id="g6"
         transform="translate(174.79974,19.65314)"><path
           style="fill:#ffffff"
           d="m -106.76473,225.38246 c 2.65494,-0.66149 3.58268,-1.18806 4.16169,-2.36209 0.42529,-0.86234 0.42952,-1.14147 0.0601,-3.96138 -0.99359,-7.5844 -1.25413,-8.02501 -4.44235,-7.5127 -0.75182,0.1208 -2.28031,0.22551 -3.39664,0.23267 -1.79423,0.0115 -2.10889,-0.0614 -2.71238,-0.62879 -0.37547,-0.35299 -0.8009,-1.06737 -0.94539,-1.5875 -0.15541,-0.55946 -0.2633,-5.68708 -0.26418,-12.55502 l -10e-4,-11.60934 1.12448,0.17788 c 5.94192,0.93995 11.09831,3.53906 13.692729,6.90191 1.47733,1.9149 2.1289,3.7495 2.38697,6.72095 0.23546,2.71121 0.56276,3.40546 2.09815,4.45055 1.69438,1.15331 3.93801,1.00708 5.56598,-0.36276 1.37268,-1.15504 1.68386,-2.05476 1.63387,-4.72402 -0.11698,-6.24571 -1.87922,-11.83323 -5.09025,-16.13959 -1.0859,-1.4563 -3.75469,-4.09438 -5.40464,-5.34242 -3.445319,-2.60609 -9.466139,-4.89879 -14.472309,-5.51098 l -1.50773,-0.18437 -0.0798,-6.07745 -0.0798,-6.07744 -0.98831,-0.90523 c -0.98586,-0.903 -0.99466,-0.90521 -3.57187,-0.89663 -1.42097,0.005 -3.83944,0.16627 -5.37438,0.35896 -4.88169,0.61283 -4.84017,0.54501 -5.0144,8.19109 l -0.13229,5.80562 -2.64584,0.59326 c -12.62681,2.83125 -20.56399,11.29916 -22.06398,23.53934 -0.55269,4.51 -0.28348,6.04021 1.29654,7.36971 1.74651,1.46959 4.35086,1.45558 6.11985,-0.0329 1.09879,-0.92457 1.29101,-1.40212 1.67712,-4.16653 0.19466,-1.39373 0.62734,-3.07944 0.99501,-3.87652 1.44795,-3.13905 4.34251,-5.76138 8.16545,-7.3975 1.91221,-0.81838 5.22784,-1.80451 6.09767,-1.81357 0.39653,-0.004 0.44699,1.11634 0.56279,12.49703 0.11544,11.3442 0.17745,12.72887 0.66987,14.95685 1.33215,6.02737 4.85104,10.06443 10.30671,11.82438 3.1386,1.0125 7.76128,1.05426 11.57297,0.10456 l 3e-5,-3e-5"
           id="path5" /><path
           style="fill:#000000"
           d="m -115.41815,222.56839 c -1.80893,-0.279 -4.19796,-1.26943 -5.66238,-2.34748 -2.82233,-2.07768 -4.14557,-4.7249 -4.89261,-9.78796 -0.0644,-0.43657 -0.12691,-6.99349 -0.13888,-14.57094 l -0.0218,-13.77718 -1.78593,0.21419 c -4.1478,0.49746 -8.23093,1.6424 -11.23576,3.1506 -3.65502,1.83454 -7.21522,5.577 -8.35307,8.78069 -0.43157,1.21511 -0.48293,1.25953 -1.2455,1.07703 -0.43744,-0.1047 -1.06325,-0.19707 -1.39067,-0.20529 -0.47616,-0.0119 -0.59531,-0.16752 -0.59531,-0.77728 0,-1.13754 1.49919,-5.32778 2.67465,-7.47569 2.45963,-4.49444 7.43676,-8.43691 13.06805,-10.35142 1.98148,-0.67365 6.66886,-1.65117 7.91769,-1.65117 h 0.93677 l 0.0707,-6.68073 0.0707,-6.68073 2.11666,-0.31352 c 1.16417,-0.17244 2.97987,-0.32126 4.0349,-0.33073 l 1.91823,-0.0172 v 6.87917 6.87916 l 1.12448,0.005 c 1.52197,0.007 6.0688,0.67807 7.93101,1.17131 1.99156,0.5275 6.08008,2.45033 8.03755,3.78005 2.017961,1.37081 5.085981,4.60944 6.239591,6.58656 1.47526,2.52838 2.21822,4.62379 3.01361,8.49942 0.11473,0.55904 0.035,0.59531 -1.3087,0.59531 h -1.43087 l -0.95758,-2.01637 c -0.52666,-1.10901 -1.43432,-2.58581 -2.01702,-3.28178 -1.59357,-1.90335 -4.598191,-4.06904 -7.322711,-5.27811 -3.57994,-1.5887 -5.65135,-2.0616 -12.20354,-2.78608 l -1.14313,-0.1264 0.10884,13.95427 c 0.0804,10.30384 0.19742,14.24818 0.44747,15.07778 0.43402,1.44003 2.09864,3.33209 3.38402,3.8464 1.5431,0.61743 3.72844,0.79741 5.58793,0.46022 0.92207,-0.1672 1.71616,-0.26434 1.76465,-0.21585 0.12393,0.12393 0.95827,6.60595 0.8619,6.69612 -0.7468,0.69875 -7.22405,1.38586 -9.60396,1.01879 v -1.6e-4"
           id="path6" /></g></g></g></svg>
